<?xml version="1.0" encoding="iso-8859-1"?>
<!-- Generator: Adobe Illustrator 19.0.0, SVG Export Plug-In . SVG Version: 6.00 Build 0)  -->
<svg xmlns="http://www.w3.org/2000/svg" xmlns:xlink="http://www.w3.org/1999/xlink" version="1.1" id="Layer_1" x="0px" y="0px" viewBox="0 0 512.001 512.001" style="enable-background:new 0 0 512.001 512.001;" xml:space="preserve">
<g>
	<g>
		<g>
			<path d="M509.059,96.612l-93.668-93.67c-2.132-2.132-5.118-3.196-8.109-2.89L355.19,5.309c-3.859,0.39-7.149,2.966-8.451,6.62     c-0.325,0.915-0.512,1.856-0.566,2.796l-4.453,77.189c-34.637-20.738-74.353-31.808-115.771-31.808     c-60.353,0-117.093,23.503-159.769,66.178c-42.676,42.676-66.179,99.417-66.179,159.77c0,60.353,23.503,117.093,66.179,159.769     c42.676,42.676,99.417,66.179,159.769,66.179c60.352,0,117.093-23.503,159.769-66.179c42.676-42.676,66.179-99.417,66.179-159.77     c0-41.418-11.071-81.133-31.809-115.771c0,0,77.222-4.461,77.24-4.463c0.923-0.058,1.847-0.237,2.745-0.557     c3.653-1.302,6.23-4.592,6.62-8.45l5.256-52.092C512.252,101.72,511.191,98.744,509.059,96.612z M459.091,75.047l-10.328,18.615     l-30.424-30.424l18.616-10.328L459.091,75.047z M434.323,107.628l-44.221,23.17c-1.44-1.521-2.897-3.029-4.383-4.515     c-1.486-1.486-2.994-2.943-4.514-4.383l23.17-44.221L434.323,107.628z M404.557,20.514l17.625,17.625l-18.616,10.328l-25.3-25.3     L404.557,20.514z M364.933,38.238L389.495,62.8l-23.894,45.603c-1.493-1.179-2.998-2.338-4.516-3.475L364.933,38.238z      M371.516,431.62c-38.882,38.883-90.579,60.296-145.568,60.296S119.264,470.502,80.38,431.62     c-38.883-38.882-60.296-90.579-60.296-145.568c0-54.989,21.414-106.686,60.296-145.568c40.132-40.133,92.849-60.2,145.568-60.2     c52.717,0,105.434,20.066,145.568,60.2C451.783,220.751,451.783,351.355,371.516,431.62z M407.073,150.915     c-1.138-1.517-2.297-3.023-3.475-4.515l45.603-23.894l24.562,24.562L407.073,150.915z M488.835,133.736l-25.3-25.3l10.328-18.616     l17.625,17.625L488.835,133.736z"/>
			<path d="M314.71,374.813c-23.71,23.709-55.232,36.766-88.76,36.766c-5.546,0-10.042,4.496-10.042,10.042     c0,5.546,4.496,10.042,10.042,10.042c38.893,0,75.46-15.147,102.963-42.649c14.162-14.162,25.045-30.679,32.349-49.09     c2.045-5.156-0.478-10.992-5.633-13.037c-5.153-2.047-10.992,0.478-13.037,5.632C336.304,348.37,326.924,362.6,314.71,374.813z"/>
			<path d="M361.28,297.958c0.049,0,0.097,0.001,0.147,0.001c5.479,0,9.96-4.402,10.038-9.9c0.01-0.668,0.014-1.338,0.014-2.006     c0-5.546-4.497-10.042-10.042-10.042c-5.545,0-10.042,4.496-10.042,10.042c0,0.574-0.004,1.149-0.012,1.721     C351.303,293.319,355.734,297.879,361.28,297.958z"/>
			<path d="M225.948,100.273c-49.623,0-96.277,19.324-131.365,54.413c-35.036,35.036-54.331,81.69-54.331,131.366     c0,49.677,19.295,96.33,54.332,131.366c35.088,35.089,81.742,54.414,131.365,54.414c49.623,0,96.277-19.324,131.366-54.413     c35.036-35.036,54.332-81.69,54.332-131.366s-19.296-96.33-54.332-131.366C322.224,119.597,275.571,100.273,225.948,100.273z      M343.113,403.217c-31.296,31.296-72.906,48.532-117.164,48.532c-44.259,0-85.868-17.235-117.164-48.532     c-31.243-31.242-48.449-72.852-48.449-117.165c0-44.312,17.206-85.921,48.449-117.163     c31.295-31.296,72.905-48.532,117.164-48.532c44.258,0,85.868,17.235,117.164,48.532c31.242,31.242,48.449,72.852,48.449,117.163     C391.562,330.365,374.355,371.974,343.113,403.217z"/>
		</g>
	</g>
</g>
<g>
</g>
<g>
</g>
<g>
</g>
<g>
</g>
<g>
</g>
<g>
</g>
<g>
</g>
<g>
</g>
<g>
</g>
<g>
</g>
<g>
</g>
<g>
</g>
<g>
</g>
<g>
</g>
<g>
</g>
</svg>
