<?xml version="1.0" encoding="UTF-8"?>
<svg xmlns="http://www.w3.org/2000/svg" version="1.1" viewBox="0 0 1200 200">
  <defs>
    <style>
      .cls-1 {
        fill: #1e1f1c;
        font-size: 95px;
      }

      .cls-1, .cls-2 {
        font-family: BorcerRegular, Borcer;
      }

      .cls-3 {
        fill: #1a1a1a;
      }

      .cls-3, .cls-4, .cls-5, .cls-6, .cls-7, .cls-8, .cls-9, .cls-10, .cls-11, .cls-12, .cls-13 {
        stroke-width: 0px;
      }

      .cls-4 {
        fill: #efeae7;
      }

      .cls-5 {
        fill: #fdc62f;
      }

      .cls-14, .cls-2 {
        isolation: isolate;
      }

      .cls-6 {
        fill: #f1a148;
      }

      .cls-7 {
        fill: #d3a97e;
      }

      .cls-8 {
        fill: #c4972a;
      }

      .cls-9 {
        fill: #f2a247;
      }

      .cls-10 {
        fill: #229e38;
      }

      .cls-2 {
        fill: #1e1e1c;
        font-size: 97.6px;
      }

      .cls-11 {
        fill: #db291c;
      }

      .cls-12 {
        fill: #5e3712;
      }

      .cls-13 {
        fill: #fff;
      }

      .cls-15 {
        fill: none;
        stroke: #1e1e1c;
        stroke-linecap: round;
        stroke-linejoin: round;
        stroke-width: 2px;
      }
    </style>
  </defs>
  <g id="Camada_2" data-name="Camada 2">
    <rect class="cls-11" y="-.08" width="1200" height="200.5"/>
  </g>
  <g id="Camada_4" data-name="Camada 4">
    <g id="Camada_3" data-name="Camada 3">
      <path class="cls-8" d="M1199.93,198.77h-503.6c25.48-31.6,48.49-42.5,64.91-46.6,39.42-9.8,56.89,15.8,90.69-1,29.46-14.6,24.96-38.5,53.59-50.4,37.18-15.5,54.86,20.7,83.35,1.1,19.11-13.2,16.71-33.2,45.12-57.8,6.07-5.2,16.11-12.9,35.83-21.3,48.12-20.4,103.13-23.5,130.12-24v200Z"/>
    </g>
    <g id="Camada_2-2" data-name="Camada 2">
      <path class="cls-5" d="M1199.93,198.77h-498.8c25.18-28,47.97-37.6,64.31-41.3,39.05-8.7,56.29,14,89.79-.9,29.23-12.9,24.73-34.1,53.07-44.6,36.88-13.7,54.34,18.3,82.6.9,18.96-11.7,16.56-29.4,44.67-51.2,6-4.6,15.89-11.4,35.53-18.9,47.67-18.1,102.16-20.8,128.92-21.2v177.1h0l-.07.1Z"/>
    </g>
  </g>
  <g id="Camada_1" data-name="Camada 1">
    <g id="Camada_4-2" data-name="Camada 4">
      <g class="cls-14">
        <g class="cls-14">
          <text class="cls-2" transform="translate(305.3 95.18) scale(.8 1)"><tspan x="0" y="0">BRutu’s</tspan></text>
        </g>
      </g>
      <path class="cls-5" d="M685.81,38.84c-25.8-1.3-40.2,14.1-42.8,10.7-4-5.2,28.2-42.8,48.4-37.5,5.5,1.4,8.8,5.3,8.8,5.3,4.8,5.7,5.3,15,1.2,19.3-3.5,3.6-9.4,2.4-15.5,2.1h0l-.1.1Z"/>
      <path class="cls-5" d="M657.41,80.64c-18.1,1.6-28.9,17-30.6,14.2-2.6-4.3,21.8-41.8,35.8-39.1,3.8.7,5.9,3.9,5.9,3.9,3.1,4.6,3,13-.1,17.3-2.7,3.7-6.7,3.2-11,3.6v.1Z"/>
      <path class="cls-5" d="M703.01,62.94c-12.4-7.8-27.9-3.1-27.4-5.8.8-4.1,37.3-16.5,44.6-7.8,2,2.3,1.5,5.5,1.5,5.5-.6,4.5-5.4,10-9.8,11.2-3.7,1.1-6.1-1.2-9-3.1h.1Z"/>
    </g>
    <text class="cls-1" transform="translate(391.29 172.81) scale(1.1 1)"><tspan x="0" y="0">KIDS</tspan></text>
    <path class="cls-13" d="M1199.83,84.72v114.5l-7.6,1.2h-202.9c.8-.8,1.7-1.5,2.7-2.2,8.1-6.1,18.2-7.9,28.6-6-.2-19.3,7-37.1,20.9-47.7,13.6-10.3,30.8-11.6,47.1-5.4,3.5-10.3,9.3-19.5,17.4-26.6,19.1-16.7,45.8-17.4,68.9-4.5,2.3-6.3,5.8-11.7,10.7-15.9,4.2-3.7,9-6.1,14.3-7.4h-.1Z"/>
  </g>
  <g id="Camada_3-2" data-name="Camada 3">
    <g>
      <g id="Camada_10" data-name="Camada 10">
        <path class="cls-7" d="M67.99,143.88c-9.59-10.36-12.16-24.82-6.61-35.69,6.15-12.06,21.48-18.15,30.16-14.53,1.44.6,5.49,2.29,6.65,6.19.67,2.27.38,5.44-1.47,7.47-3,3.31-7.67,0-16.23,2.57-1.87.56-4.8,1.72-6.67,3.96-4.21,5.06-2.21,15.34,3.96,25.67-.42.79-1.13,1.89-2.34,2.82-3.07,2.38-6.75,1.69-7.47,1.54h0Z"/>
      </g>
      <g id="Camada_4-3" data-name="Camada 4">
        <path class="cls-9" d="M85.78,95.14c-2.1,4.47-17.88,39.21-1.77,62.11,13.73,19.51,43.73,20.83,71.78,21.72,36.65,1.16,62.44-8.43,79.12-14.84,15.6-5.99,29.02-12.53,40.99-26.53,10.72-12.54,12.52-22.74,12.9-25.09.56-3.54,1.45-12.12-1.99-21.34-7.86-21.09-31.54-27.19-34.03-27.8"/>
      </g>
      <g id="Camada_3-3" data-name="Camada 3">
        <path class="cls-12" d="M81.13,91.17c-1.32,4.09-7.43,24.38,3.59,39.11,2.34,3.14,7.99,9.39,28.86,14.49,11.5,2.81,32.98,6.58,67.51,1.49,18.82-2.77,36.01-5.31,56.52-15.49,18.33-9.1,40.9-20.3,44.18-41.2,2.13-13.59-4.8-25.51-9.15-31.67"/>
      </g>
      <g id="Camada_2-3" data-name="Camada 2">
        <path class="cls-10" d="M102.89,117.65c-6.43-3.21-5.38-9.2-12.91-13.9-7.38-4.6-12.97-1.72-15.89-5.78-3.72-5.18,1.75-14.96,3.17-17.63,5.74-10.87,30.6-43.72,82.94-54.13,60.8-12.09,103.58,17.27,111.78,26.36.45.51,7.04,7.79,5.07,11.03-1.66,2.73-7.94.19-10.37,3.53-2.33,3.22,1.93,7.7-.52,11.16-2.02,2.86-5.54.64-8.75,3.62-4.05,3.76-1.49,10.11-5.47,12.25-1.15.62-2.28.61-4.28.52-3.19-.14-5.24-1.54-8.33-1.62,0,0-2.4-.05-4.63.77-6.26,2.3-4.91,9.4-9.93,11.69-4.93,2.25-9.31-3.21-16.53-.24-1.34.55-2.38,1.2-2.89,1.56-4.96,3.6-4,7.09-7.76,8.46-5.74,2.09-9.72-5.41-17.61-5.59-8.36-.2-8.93,8.09-18.97,11.69-13.28,4.76-18.99-7.32-39.49-5.07-9.42,1.03-13.05,4.11-18.63,1.33h0Z"/>
        <path class="cls-10" d="M528.05,57.91"/>
      </g>
      <g id="Camada_1-2" data-name="Camada 1">
        <path class="cls-6" d="M106.08,104.2c-2.57-.57-23.04-5.34-27-19.96-.86-3.19-1.47-8.83,2.75-17.57,7.89-16.3,33.13-44.46,76.53-53.14,50.92-10.19,107.17,10.37,109.86,31.11.88,6.81-3.69,16.04-4.47,17.63-4.54,9.16-11.48,14.97-19.35,20.1-20.92,13.62-42.98,18.87-50.3,20.52-25.54,5.73-54.7,8.64-88.02,1.32h0Z"/>
      </g>
      <g id="Camada_5" data-name="Camada 5">
        <ellipse class="cls-4" cx="105.89" cy="75.55" rx="19.61" ry="39.52"/>
        <ellipse class="cls-4" cx="162.11" cy="72.85" rx="20.96" ry="42.97" transform="translate(-3.53 8.44) rotate(-2.95)"/>
        <ellipse class="cls-3" cx="159.77" cy="72.96" rx="10.77" ry="22.08" transform="translate(-3.54 8.32) rotate(-2.95)"/>
        <path class="cls-4" d="M159.76,60.42c.43-1.17,1.36-3.27,3.34-5.24,1.86-1.85,3.8-2.75,4.94-3.18-.61-.19-1.82-.48-3.18-.08-1.76.52-2.68,1.88-3.34,2.84-1.48,2.17-1.73,4.44-1.75,5.66"/>
        <ellipse class="cls-3" cx="103.39" cy="75.55" rx="10.57" ry="21.32"/>
        <path class="cls-4" d="M105.89,64.77c.43-1.17,1.36-3.27,3.34-5.24,1.86-1.85,3.8-2.75,4.94-3.18-.61-.19-1.82-.48-3.18-.08-1.76.52-2.68,1.88-3.34,2.84-1.48,2.17-1.73,4.44-1.75,5.66"/>
        <path class="cls-4" d="M173.66,119.79c3.38,3.27.95,10.65.66,11.51-5.58,16.93-35.99,26.64-57.91,18.55-3.29-1.21-17.55-6.47-18.73-16.81-.38-3.28.43-8.21,3.84-10.84,6.89-5.3,16.08,5.24,32.74,6.03,20.64.97,33.71-13.94,39.4-8.43h0Z"/>
      </g>
      <g id="Camada_6" data-name="Camada 6">
        <path class="cls-7" d="M262.83,158.07c13.37-8.69,20.02-23.76,16.71-37.14-3.67-14.83-19.1-25.65-29.69-24.07-1.76.26-6.7,1.01-9.01,4.94-1.34,2.28-1.85,5.83-.33,8.56,2.46,4.43,8.52,2.09,17.36,7.23,1.93,1.12,4.88,3.18,6.36,6.14,3.36,6.67-1.57,17.34-11.14,26.92.26.98.77,2.37,1.86,3.71,2.79,3.43,7.06,3.68,7.89,3.71h0Z"/>
      </g>
      <g id="Camada_8" data-name="Camada 8">
        <path class="cls-4" d="M239.84,163.53c.23.64.43,1.29.59,1.94s1.1,1.13,1.7.69c1.75-1.28,3.04-2.98,3.79-5.01.24-.66-.4-1.55-1.12-1.47-.56.06-1.06.19-1.56.47s-.84.65-1.17,1.1c-.17.23-.19.63-.12.9s.28.56.53.69c.6.32,1.21.11,1.59-.42.07-.1.05-.07-.06.08.03-.03.06-.06.09-.1.05-.05.09-.09.14-.14.02-.02.05-.04.07-.06.07-.06.03-.03-.1.08.06-.01.14-.09.19-.13s.16-.06.2-.11l-.16.06s.08-.03.13-.05c.06-.02.13-.04.19-.06.09-.02.4-.06.02-.01l-1.12-1.47c-.04.11-.08.22-.13.32-.06.14.01-.04.04-.08-.03.05-.05.11-.07.16-.09.2-.19.39-.3.59-.21.39-.45.75-.71,1.11-.09.13.02-.03.06-.07-.04.04-.07.09-.11.13-.06.08-.13.16-.2.24-.14.17-.29.32-.45.48s-.32.31-.48.45c-.09.07-.18.15-.27.22-.12.1.03-.03.07-.06-.06.04-.11.08-.17.13l1.7.69c-.16-.66-.36-1.31-.59-1.94-.11-.29-.26-.53-.53-.69-.25-.14-.62-.21-.9-.12-.56.18-1.04.82-.81,1.43h0Z"/>
        <path class="cls-4" d="M262.74,157.92c-.71-.12-1.41-.19-2.12-.26-.14-.13-.29-.25-.45-.35-.53-.32-1.16-.54-1.77-.63-.3-.04-.58-.03-.85.02h-.12c-.27-.3-.61-.53-1.02-.64-.16-.22-.35-.41-.58-.56-.3-.78-.94-1.42-1.82-1.51.12-.78-.15-1.62-.71-2.18.21-1.52-1.07-3.28-2.97-2.66-.48.16-.83.42-1.08.73-.13-.06-.26-.12-.39-.16-.09-1.31-1.16-2.51-2.6-2.81-.4-.93-1.33-1.61-2.54-1.33-.52-.4-1.22-.58-2.04-.31-.36.12-.65.29-.88.51-.75.21-1.35.68-1.79,1.28-1.49.59-1.66,2.21-1.02,3.33-.04.55.11,1.13.41,1.6-.01.12-.03.24-.06.37-.05.2-.11.39-.17.57-.42-.15-.92-.15-1.47.05-.18.06-.36.12-.53.17-.52-.43-1.23-.62-2.07-.34-.65.21-1.07.61-1.3,1.07-.63.23-1.23.57-1.77,1.17-.64.71-1.09,1.72-1.36,2.63-.09.3-.15.59-.19.89-.23.35-.39.78-.42,1.29-.02.23-.03.47-.03.7-.58.69-.77,1.68-.1,2.65.34.5.73.95,1.17,1.35.31.66.89,1.18,1.65,1.3.65.55,1.34,1.02,2.07,1.23-.05.25-.06.51-.02.77-.12.26-.17.54-.18.83-.16.31-.24.66-.24,1.01-.31.75-.17,1.67.29,2.34-.02.14-.03.28-.02.42.13.67.06.62.4,1.22.11.19.29.37.42.49,0,0,.01.01.02.02.16.11.33.22.49.33,0,0,0,0,.01,0,.19.1.4.18.61.21.15.04.3.06.44.06,1.75,1.36,3.86.64,5.75-.27,0,1.2.77,2.27,1.8,2.89.52.31,1.15.5,1.73.63.35.79,1.07,1.36,2.13,1.18.18-.03.34-.07.52-.11.51.34,1.16.47,1.92.22.05-.02.1-.04.14-.06l.51.04c.37-.02.71-.13,1.03-.31.23,0,.47-.04.72-.13.47-.15.82-.4,1.06-.71.15-.06.3-.13.44-.22l.07-.05c.26-.16.47-.38.62-.64.12-.14.19-.31.26-.47.21,0,.44-.05.67-.13.85-.28,1.32-.88,1.47-1.55.09-.07.18-.13.27-.21.3-.25.51-.52.65-.82.06-.06.12-.11.17-.17.06-.06.12-.12.18-.17.21-.22.35-.48.43-.77.09-.2.13-.42.14-.64.54-.63.62-1.52.35-2.28.07-.12.14-.24.2-.36.8-1.51.3-2.85.11-4.43-.06-.58-.32-1.04-.66-1.4.01-.28,0-.56-.08-.84.5.23.99.41,1.39.58,1.14.5,2.62.67,3.7-.08,1.2-.82,1.16-2.17.83-3.4-.03-1.03-.8-2.07-1.83-2.23h.01Z"/>
      </g>
      <g id="Camada_7" data-name="Camada 7">
        <g>
          <path class="cls-15" d="M257.65,161.71c1.21,2.35,3.97,3.04,5.64,1.96,1.78-1.15,1.9-4.05.84-5.32-.71-.85-1.57-.51-5.21-1.59-1.58-.47-2.39-.71-2.97-1.14-.85-.63-2.27-2.05-2.81-4.1-.25-.93-.22-1.61-.84-2.12-.47-.39-1.23-.61-1.8-.32-.84.42-.87,1.79-.88,2.33-.05,3.03,3.11,5.42,4.08,6.11"/>
          <path class="cls-15" d="M258.55,162.93c.54,1.19,1.69,4.18.85,7.74-.99,4.23-4.57,8.38-9.08,8.82-2.17.21-5.73-.33-7.33-2.89-.51-.81-.69-1.63-.76-2.21"/>
          <path class="cls-15" d="M246.98,167.8c-.17.7-1.23,4.84-5.12,6.71-.84.4-4.23,2.04-6.75.19-1.98-1.45-2.7-4.52-1.59-7.48"/>
          <path class="cls-15" d="M240.99,162.77c-1.51,1.47-2.97,2.33-3.99,2.84-1.45.72-2.41,1.19-3.73,1.08-1.49-.13-3-.96-3.89-2.28-1.28-1.91-.73-4.07-.39-5.43.29-1.14,1.1-4.28,4.02-5.64,2.57-1.2,5.8-.58,8.22,1.51"/>
          <path class="cls-15" d="M242.07,150.17c.12.54.42,2.27-.53,4.03-1.59,2.94-5.15,3.11-5.31,3.11"/>
          <path class="cls-15" d="M249.6,150.78c-.54-1.09-1.84-3.28-4.41-4.56-1.14-.57-2.99-1.49-4.85-.69-1.62.7-2.26,2.27-2.4,2.66-.88,2.4.54,4.51.7,4.73"/>
        </g>
      </g>
      <g id="Camada_9" data-name="Camada 9">
        <path class="cls-4" d="M79.49,153.93c-.45.39-.87.79-1.26,1.23l1.82.24c-.02-.05-.05-.1-.07-.15-.05-.12-.04-.1.02.05,0-.06-.06-.17-.09-.23-.06-.18-.13-.36-.18-.55-.1-.36-.18-.72-.24-1.08-.01-.09,0-.06.01.11,0-.06-.01-.11-.02-.16,0-.08-.01-.16-.02-.25-.01-.19-.02-.39-.02-.58s0-.39.02-.58c0-.08.01-.16.02-.25,0-.06.01-.11.02-.16-.02.17-.03.19,0,.06l-1.7.69c.2.14-.19-.18-.01,0,.03.03.07.06.1.1.02.03.05.05.07.08.06.06.03.04-.07-.09,0,.02.08.13.1.15.03.05.06.1.08.16.1.18-.06-.18-.02-.05.02.09.11.52.06.14.04.32.1.58.34.82.2.2.53.35.82.34.57-.02,1.24-.52,1.16-1.16-.06-.51-.17-.97-.44-1.43s-.6-.77-1.02-1.06c-.57-.4-1.6-.01-1.7.69-.15,1-.16,1.95-.02,2.95.13.91.41,1.76.8,2.59.31.67,1.35.75,1.82.24.4-.44.82-.84,1.26-1.23s.44-1.24,0-1.64c-.49-.45-1.15-.43-1.64,0h0Z"/>
        <path class="cls-4" d="M66,141.55c.58.21,1.15.45,1.72.7.16-.04.32-.07.49-.07.54-.02,1.1.07,1.61.26.24.09.45.22.64.38.03.01.06.03.09.05.33-.12.69-.15,1.04-.06.21-.1.44-.17.67-.19.55-.47,1.31-.68,2.02-.38.24-.64.8-1.17,1.45-1.36.48-1.24,2.19-2.05,3.37-.77.3.32.46.67.52,1.01.12,0,.25.01.37.05.63-.96,1.94-1.42,3.16-1.04.7-.54,1.69-.66,2.49.06.56-.09,1.17.07,1.68.62.22.24.37.5.45.75.48.48.74,1.09.82,1.73.88,1.08.33,2.38-.62,2.96-.2.44-.56.81-.98,1.04-.04.1-.07.2-.11.31-.05.17-.08.34-.11.5.38.06.76.27,1.09.65.11.13.22.24.33.35.58-.11,1.2.05,1.72.61.4.43.55.91.54,1.36.39.44.69.95.85,1.63.19.81.1,1.76-.07,2.57-.06.26-.13.51-.23.76.03.36-.03.76-.22,1.16-.08.19-.18.37-.27.55.15.77-.13,1.6-1.04,2.05-.47.24-.95.41-1.46.53-.52.37-1.17.52-1.8.29-.72.14-1.44.21-2.08.07-.07.21-.17.41-.31.59-.02.25-.1.48-.21.7,0,.31-.1.6-.24.87-.08.7-.58,1.34-1.21,1.66-.05.11-.1.22-.16.33-.38.45-.31.44-.81.76-.16.1-.38.15-.53.19,0,0-.02,0-.03,0-.17.01-.34.03-.52.05h-.01c-.19,0-.38-.03-.55-.09-.13-.03-.25-.08-.36-.14-1.91.3-3.2-1.14-4.25-2.63-.51.91-1.54,1.4-2.58,1.44-.52.02-1.08-.11-1.57-.25-.6.46-1.39.58-2.11,0-.12-.1-.23-.19-.35-.3-.52.05-1.08-.13-1.55-.64-.03-.03-.06-.07-.09-.1l-.4-.18c-.27-.17-.49-.39-.65-.67-.17-.1-.34-.23-.5-.4-.29-.32-.45-.65-.51-.98-.09-.11-.17-.23-.24-.36l-.03-.07c-.13-.24-.2-.48-.2-.75-.03-.16-.02-.32,0-.47-.16-.1-.31-.22-.46-.38-.53-.58-.63-1.22-.47-1.8-.04-.09-.08-.18-.12-.27-.13-.31-.17-.61-.15-.9-.02-.06-.04-.13-.06-.2s-.04-.13-.06-.2c-.06-.26-.07-.52,0-.77.01-.19.08-.37.16-.54-.14-.71.17-1.42.69-1.88,0-.12,0-.24,0-.36.03-1.49.97-2.29,1.77-3.42.29-.41.68-.66,1.09-.78.11-.22.24-.42.42-.6-.47-.04-.92-.11-1.3-.14-1.08-.1-2.27-.59-2.78-1.62-.56-1.13.03-2.14.8-2.93.45-.77,1.47-1.23,2.33-.92v-.02Z"/>
        <g>
          <path class="cls-15" d="M68.27,146.58c-1.91,1.28-4.29.64-5.11-.88-.87-1.62.26-3.88,1.59-4.4.9-.35,1.41.27,4.62.98,1.4.31,2.11.46,2.73.39.91-.12,2.58-.6,3.86-1.93.58-.6.84-1.13,1.53-1.26.52-.1,1.19.06,1.5.51.46.68-.09,1.73-.32,2.14-1.24,2.33-4.64,2.81-5.67,2.93"/>
          <path class="cls-15" d="M67.07,147.12c-.91.68-3.04,2.47-3.9,5.53-1.03,3.63-.05,8.3,3.19,10.52,1.56,1.07,4.49,2.16,6.78.89.72-.4,1.21-.95,1.51-1.36"/>
          <path class="cls-15" d="M73.81,155.7c-.17.6-1.1,4.2,1.07,7.26.46.66,2.35,3.33,5.05,2.98,2.11-.27,3.95-2.3,4.35-5.02"/>
          <path class="cls-15" d="M80.48,154.39c.53,1.75,1.27,3.03,1.84,3.84.8,1.16,1.33,1.92,2.38,2.4,1.19.53,2.68.54,3.91-.1,1.77-.91,2.27-2.79,2.57-3.96.26-.99.96-3.71-.69-5.98-1.44-1.99-4.16-2.88-6.88-2.31"/>
          <path class="cls-15" d="M84.95,144.36c-.32.36-1.27,1.56-1.29,3.29-.03,2.91,2.6,4.53,2.72,4.6"/>
          <path class="cls-15" d="M78.98,141.66c.86-.6,2.77-1.72,5.27-1.61,1.1.05,2.9.13,3.97,1.51.94,1.21.76,2.67.7,3.03-.34,2.19-2.31,3.2-2.51,3.3"/>
        </g>
      </g>
    </g>
  </g>
</svg>