<?xml version="1.0" encoding="UTF-8"?>
<svg xmlns="http://www.w3.org/2000/svg" version="1.1" viewBox="0 0 1200 200">
  <defs>
    <style>
      .cls-1 {
        fill: #ef890d;
      }

      .cls-1, .cls-2, .cls-3, .cls-4, .cls-5, .cls-6, .cls-7, .cls-8, .cls-9, .cls-10 {
        stroke-width: 0px;
      }

      .cls-11 {
        fill: none;
        stroke: #1d1d1b;
        stroke-linecap: round;
        stroke-linejoin: round;
        stroke-width: 2px;
      }

      .cls-2 {
        fill: #efeae6;
      }

      .cls-3 {
        fill: #191919;
      }

      .cls-4 {
        fill: #f0a047;
      }

      .cls-5 {
        fill: #1d1d1b;
      }

      .cls-6 {
        fill: #219e38;
      }

      .cls-7 {
        fill: #504f4a;
      }

      .cls-8 {
        fill: #5e3610;
      }

      .cls-9 {
        fill: #f1a146;
      }

      .cls-10 {
        fill: #d2a87d;
      }
    </style>
  </defs>
  <g id="Camada_1" data-name="Camada 1">
    <rect class="cls-1" width="1200" height="200"/>
  </g>
  <g id="Camada_3" data-name="Camada 3">
    <path class="cls-7" d="M1200,200h-671.93c33.97-31.58,64.66-42.52,86.61-46.62,52.62-9.82,75.86,15.8,120.97-.97,39.35-14.63,33.33-38.46,71.51-50.36,49.64-15.47,73.18,20.65,111.21,1.07,25.55-13.15,22.28-33.25,60.18-57.83,8.06-5.23,21.45-12.91,47.82-21.3C1090.55,3.58,1163.99.46,1200,0v200Z"/>
  </g>
  <g id="Camada_2" data-name="Camada 2">
    <path class="cls-5" d="M1200,200h-665.51c33.64-27.96,64.04-37.65,85.79-41.27,52.11-8.69,75.13,13.99,119.81-.86,38.97-12.95,33.01-34.05,70.82-44.59,49.17-13.7,72.48,18.28,110.15.95,25.3-11.65,22.07-29.44,59.6-51.2,7.98-4.63,21.24-11.43,47.37-18.86,63.57-18.08,136.3-20.83,171.97-21.25v177.07Z"/>
    <g>
      <path class="cls-10" d="M60.6,150.67c-9.76-10.55-12.38-25.27-6.73-36.34,6.26-12.28,21.87-18.48,30.72-14.8,1.47.61,5.59,2.34,6.77,6.3.69,2.3.39,5.54-1.49,7.61-3.05,3.37-7.81,0-16.53,2.62-1.9.57-4.89,1.75-6.79,4.03-4.29,5.15-2.25,15.62,4.04,26.14-.42.81-1.16,1.93-2.38,2.87-3.13,2.42-6.88,1.72-7.6,1.57Z"/>
      <path class="cls-9" d="M78.72,101.04c-2.14,4.56-18.21,39.92-1.8,63.24,13.98,19.87,44.52,21.22,73.09,22.12,37.32,1.18,63.58-8.59,80.56-15.11,15.89-6.1,29.55-12.76,41.74-27.02,10.91-12.77,12.75-23.15,13.13-25.55.57-3.6,1.48-12.34-2.02-21.73-8-21.48-32.11-27.69-34.66-28.3"/>
      <path class="cls-8" d="M73.98,97c-1.34,4.17-7.57,24.83,3.66,39.83,2.39,3.19,8.14,9.56,29.38,14.76,11.71,2.86,33.58,6.7,68.74,1.52,19.16-2.82,36.67-5.4,57.55-15.77,18.66-9.26,41.65-20.67,44.98-41.95,2.17-13.84-4.89-25.98-9.32-32.25"/>
      <path class="cls-6" d="M96.14,123.96c-6.55-3.27-5.48-9.37-13.15-14.16-7.51-4.69-13.21-1.75-16.18-5.88-3.79-5.27,1.79-15.23,3.23-17.95,5.85-11.07,31.16-44.52,84.46-55.12,61.91-12.31,105.47,17.58,113.83,26.84.46.51,7.17,7.94,5.17,11.23-1.69,2.78-8.09.19-10.56,3.59-2.38,3.27,1.96,7.84-.53,11.36-2.06,2.91-5.64.65-8.91,3.69-4.12,3.83-1.51,10.29-5.57,12.47-1.17.63-2.32.62-4.36.53-3.25-.15-5.33-1.56-8.48-1.66,0,0-2.45-.05-4.72.78-6.38,2.34-5,9.58-10.11,11.91-5.02,2.29-9.48-3.27-16.83-.24-1.36.56-2.43,1.22-2.94,1.59-5.05,3.67-4.07,7.22-7.9,8.62-5.85,2.13-9.9-5.5-17.93-5.7-8.51-.2-9.09,8.24-19.32,11.91-13.52,4.85-19.34-7.45-40.21-5.17-9.6,1.05-13.29,4.19-18.97,1.35Z"/>
      <path class="cls-4" d="M99.39,110.26c-2.62-.58-23.46-5.44-27.49-20.33-.88-3.25-1.5-8.99,2.8-17.89,8.03-16.6,33.73-45.27,77.93-54.11,51.85-10.38,109.13,10.57,111.87,31.67.9,6.93-3.76,16.34-4.56,17.95-4.62,9.33-11.69,15.25-19.71,20.47-21.3,13.87-43.77,19.22-51.22,20.89-26.01,5.83-55.7,8.8-89.63,1.35Z"/>
      <ellipse class="cls-2" cx="99.19" cy="81.1" rx="19.96" ry="40.24"/>
      <ellipse class="cls-2" cx="156.43" cy="78.34" rx="21.34" ry="43.75" transform="translate(-3.82 8.15) rotate(-2.95)"/>
      <ellipse class="cls-3" cx="154.05" cy="78.47" rx="10.97" ry="22.48" transform="translate(-3.83 8.02) rotate(-2.95)"/>
      <path class="cls-2" d="M154.05,65.69c.44-1.2,1.39-3.33,3.4-5.33,1.89-1.88,3.87-2.8,5.03-3.24-.62-.2-1.85-.49-3.24-.08-1.79.53-2.73,1.91-3.4,2.89-1.51,2.21-1.76,4.52-1.79,5.76"/>
      <ellipse class="cls-3" cx="96.65" cy="81.1" rx="10.77" ry="21.71"/>
      <path class="cls-2" d="M99.19,70.12c.44-1.2,1.39-3.33,3.4-5.33,1.89-1.88,3.87-2.8,5.03-3.24-.62-.2-1.85-.49-3.24-.08-1.79.53-2.73,1.91-3.4,2.89-1.51,2.21-1.76,4.52-1.79,5.76"/>
      <path class="cls-2" d="M168.2,126.15c3.44,3.33.96,10.85.68,11.72-5.68,17.25-36.65,27.12-58.97,18.89-3.35-1.23-17.87-6.59-19.07-17.12-.38-3.34.44-8.36,3.91-11.04,7.01-5.4,16.38,5.34,33.33,6.14,21.02.99,34.33-14.19,40.12-8.59Z"/>
      <path class="cls-10" d="M259.01,165.12c13.61-8.85,20.38-24.2,17.02-37.81-3.74-15.1-19.45-26.11-30.24-24.51-1.79.27-6.82,1.03-9.17,5.03-1.37,2.33-1.88,5.93-.34,8.71,2.51,4.51,8.67,2.13,17.67,7.36,1.96,1.14,4.97,3.24,6.48,6.25,3.42,6.79-1.6,17.65-11.34,27.42.26,1,.78,2.42,1.89,3.78,2.84,3.49,7.19,3.75,8.04,3.78Z"/>
      <path class="cls-2" d="M234.32,171.04c.24.65.44,1.31.6,1.98.18.75.76,1.33,1.45,1.62.3.16.62.23.96.22.45,0,.87-.12,1.26-.34.54-.4,1.08-.81,1.56-1.28s.9-1,1.3-1.54c.7-.93,1.2-1.98,1.6-3.07.27-.73,0-1.59-.45-2.18-.18-.27-.41-.49-.7-.64-.39-.23-.81-.34-1.26-.34-.82.09-1.52.24-2.25.66s-1.19.95-1.66,1.6c-.18.29-.28.6-.3.93-.07.33-.06.66.04,1,.16.58.61,1.21,1.15,1.49.58.31,1.28.46,1.93.25l.6-.25c.38-.22.67-.52.9-.9.03-.04.05-.07.08-.11l-.39.51c.13-.16.27-.3.43-.42l-.51.39c.16-.12.34-.22.52-.3l-.6.25c.21-.09.42-.15.65-.18l-.66.09h.07c-.8-1.06-1.61-2.12-2.41-3.17-.06.16-.12.31-.18.46l.25-.6c-.32.74-.72,1.43-1.21,2.07l.39-.51c-.49.63-1.06,1.2-1.69,1.7l.51-.39c-.07.06-.15.11-.23.17l3.67,1.49c-.16-.67-.36-1.33-.6-1.98s-.56-1.15-1.15-1.49c-.54-.31-1.33-.45-1.93-.25s-1.19.57-1.49,1.15-.48,1.3-.25,1.93h0Z"/>
      <path class="cls-2" d="M258.91,164.97c-.72-.12-1.43-.19-2.16-.26-.14-.13-.29-.25-.46-.36-.54-.33-1.17-.55-1.8-.64-.3-.04-.59-.03-.86.02-.04,0-.08,0-.12,0-.28-.31-.63-.54-1.04-.65-.16-.22-.36-.42-.59-.57-.3-.79-.96-1.44-1.86-1.54.12-.79-.16-1.65-.72-2.22.21-1.55-1.09-3.34-3.02-2.7-.49.16-.85.42-1.1.74-.13-.07-.26-.12-.4-.16-.1-1.34-1.18-2.56-2.65-2.86-.41-.95-1.36-1.64-2.58-1.35-.53-.41-1.24-.59-2.07-.31-.37.12-.66.3-.89.52-.76.22-1.38.69-1.82,1.31-1.51.61-1.69,2.25-1.04,3.39-.04.56.11,1.15.42,1.63-.01.12-.03.25-.07.38-.05.21-.11.39-.17.58-.43-.15-.93-.16-1.49.05-.18.07-.36.12-.55.17-.53-.43-1.26-.63-2.11-.35-.66.22-1.09.62-1.33,1.09-.64.23-1.25.58-1.8,1.19-.65.73-1.1,1.75-1.39,2.67-.09.31-.16.6-.2.91-.23.36-.39.79-.43,1.31-.02.24-.03.48-.03.71-.59.7-.78,1.71-.1,2.69.35.51.74.96,1.19,1.38.32.67.91,1.2,1.68,1.32.66.56,1.37,1.04,2.1,1.26-.05.26-.06.52-.02.78-.12.26-.17.55-.18.84-.17.32-.24.67-.25,1.03-.31.77-.17,1.7.3,2.38-.02.14-.03.28-.02.43.13.68.07.63.41,1.24.11.19.3.37.43.5,0,0,.02.01.02.02.17.11.33.23.5.34,0,0,.01,0,.02,0,.19.1.41.18.62.22.15.04.3.06.45.06,1.79,1.39,3.93.65,5.86-.28,0,1.22.79,2.31,1.84,2.94.52.31,1.17.5,1.76.64.35.81,1.09,1.39,2.16,1.2.18-.03.35-.07.53-.11.51.35,1.18.48,1.95.23.05-.02.1-.04.15-.06l.52.04c.38-.02.73-.13,1.05-.31.23,0,.48-.04.74-.13.48-.16.83-.41,1.08-.72.16-.06.31-.13.45-.23l.07-.05c.27-.17.48-.38.63-.65.12-.15.2-.31.27-.48.22,0,.45-.05.68-.13.87-.29,1.34-.89,1.5-1.58.09-.07.18-.14.27-.21.3-.25.52-.53.66-.83.06-.06.12-.11.18-.18.06-.06.12-.12.18-.18.21-.23.36-.49.44-.79.09-.21.13-.43.14-.65.55-.64.63-1.55.36-2.32.07-.12.14-.24.21-.36.81-1.54.3-2.9.11-4.51-.07-.59-.32-1.06-.67-1.42.01-.28,0-.57-.09-.85.51.23,1.01.42,1.41.59,1.16.51,2.66.68,3.77-.08,1.22-.84,1.18-2.21.84-3.46-.03-1.05-.81-2.1-1.87-2.27Z"/>
      <g>
        <path class="cls-11" d="M253.73,168.83c1.23,2.4,4.05,3.09,5.74,2,1.82-1.17,1.93-4.13.86-5.41-.72-.87-1.6-.52-5.3-1.62-1.61-.48-2.43-.72-3.02-1.16-.87-.64-2.3-2.08-2.86-4.17-.25-.94-.23-1.64-.86-2.16-.48-.4-1.26-.62-1.83-.33-.86.43-.88,1.82-.89,2.38-.05,3.09,3.17,5.52,4.16,6.22"/>
        <path class="cls-11" d="M254.65,170.07c.55,1.21,1.72,4.26.87,7.88-1.01,4.31-4.65,8.53-9.25,8.98-2.21.21-5.84-.34-7.46-2.94-.52-.83-.7-1.66-.77-2.25"/>
        <path class="cls-11" d="M242.87,175.03c-.17.71-1.25,4.92-5.21,6.83-.85.41-4.31,2.07-6.87.19-2.01-1.48-2.75-4.61-1.62-7.62"/>
        <path class="cls-11" d="M236.77,169.9c-1.53,1.5-3.02,2.38-4.07,2.89-1.48.73-2.46,1.21-3.8,1.1-1.52-.13-3.06-.97-3.96-2.32-1.3-1.95-.74-4.14-.39-5.53.3-1.16,1.12-4.35,4.1-5.74,2.61-1.22,5.91-.59,8.37,1.54"/>
        <path class="cls-11" d="M237.86,157.08c.12.55.43,2.32-.54,4.1-1.62,3-5.24,3.16-5.4,3.17"/>
        <path class="cls-11" d="M245.53,157.7c-.55-1.1-1.87-3.34-4.5-4.65-1.16-.58-3.05-1.52-4.93-.71-1.65.71-2.3,2.31-2.44,2.7-.9,2.44.55,4.59.71,4.81"/>
      </g>
      <path class="cls-2" d="M71.38,159.97c-.45.39-.88.81-1.29,1.25l3.93.51c-.05-.1-.09-.2-.14-.31l.25.6c-.28-.67-.46-1.37-.56-2.1l.09.66c-.09-.72-.09-1.45,0-2.17l-.09.66c0-.06.02-.11.02-.17l-3.67,1.49s.08.06.12.09l-.51-.39c.13.11.25.23.35.36l-.39-.51c.12.16.21.32.29.5l-.25-.6c.06.16.11.32.13.49l-.09-.66v.07c0,.34.07.67.22.96.1.31.27.58.52.8.43.43,1.15.76,1.77.73s1.32-.24,1.77-.73c.42-.45.81-1.13.73-1.77-.1-.78-.22-1.42-.63-2.11s-.88-1.11-1.51-1.55-1.55-.41-2.22-.13c-.31.1-.58.27-.8.52-.31.31-.52.68-.64,1.1-.09.61-.18,1.22-.19,1.83s.08,1.25.16,1.87c.15,1.04.5,2,.94,2.96.32.69,1.11,1.1,1.83,1.19.75.1,1.57-.11,2.1-.69.4-.44.83-.86,1.29-1.25s.73-1.17.73-1.77-.27-1.35-.73-1.77-1.1-.76-1.77-.73-1.24.28-1.77.73h0Z"/>
      <path class="cls-2" d="M58.57,148.3c.59.21,1.17.46,1.75.71.16-.04.33-.07.5-.08.55-.02,1.12.07,1.64.27.25.09.46.23.65.38.03.02.06.03.09.05.34-.12.7-.15,1.06-.06.22-.1.45-.17.69-.19.56-.48,1.34-.69,2.05-.39.24-.65.81-1.19,1.48-1.39.49-1.27,2.23-2.08,3.43-.78.3.33.47.68.52,1.03.12,0,.25.02.37.05.64-.98,1.97-1.45,3.22-1.06.71-.55,1.72-.68,2.53.06.57-.09,1.19.07,1.71.63.23.25.38.51.46.77.49.49.75,1.11.83,1.76.89,1.1.34,2.42-.63,3.01-.21.45-.57.83-1,1.06-.04.1-.08.2-.11.32-.05.18-.08.35-.11.51.39.07.78.27,1.11.66.11.13.23.24.34.36.59-.11,1.22.05,1.75.63.41.44.56.93.55,1.39.39.45.71.97.86,1.66.19.83.1,1.79-.07,2.62-.06.27-.13.52-.23.77.03.37-.03.77-.22,1.18-.09.19-.18.37-.28.56.16.78-.13,1.63-1.06,2.09-.48.24-.97.42-1.49.54-.52.38-1.2.53-1.83.3-.74.14-1.47.21-2.12.07-.07.22-.18.42-.31.6-.02.25-.1.49-.21.72,0,.31-.1.61-.25.89-.08.72-.58,1.36-1.23,1.69-.05.12-.1.23-.16.34-.38.46-.31.45-.83.77-.16.1-.38.16-.54.2,0,0-.02,0-.03,0-.17.02-.35.03-.52.05,0,0-.01,0-.02,0-.19,0-.38-.03-.56-.1-.13-.03-.25-.08-.37-.15-1.94.3-3.25-1.16-4.33-2.68-.52.93-1.57,1.43-2.63,1.47-.53.02-1.1-.11-1.6-.26-.61.47-1.41.6-2.15,0-.12-.1-.24-.2-.35-.3-.54.05-1.1-.13-1.58-.65-.03-.03-.06-.07-.09-.1l-.41-.19c-.28-.18-.5-.4-.67-.68-.18-.1-.35-.23-.51-.41-.29-.32-.46-.66-.52-1-.09-.11-.18-.23-.25-.36l-.03-.07c-.13-.24-.2-.49-.2-.76-.03-.16-.02-.32,0-.48-.16-.1-.32-.22-.47-.38-.54-.58-.64-1.24-.48-1.83-.04-.09-.08-.18-.12-.28-.13-.32-.17-.62-.15-.91-.02-.07-.04-.14-.06-.21-.02-.07-.04-.14-.06-.21-.07-.26-.07-.52,0-.78.02-.2.08-.38.17-.55-.15-.72.17-1.44.71-1.92,0-.12,0-.25,0-.36.03-1.51.99-2.33,1.81-3.48.3-.42.69-.67,1.11-.8.11-.22.25-.43.42-.61-.48-.04-.94-.11-1.32-.14-1.1-.1-2.31-.6-2.83-1.65-.57-1.15.03-2.18.82-2.98.46-.79,1.5-1.26,2.37-.94Z"/>
      <g>
        <path class="cls-11" d="M60.88,153.42c-1.94,1.3-4.37.65-5.2-.9-.89-1.65.27-3.95,1.62-4.48.91-.35,1.44.28,4.71,1,1.42.32,2.15.47,2.78.39.93-.12,2.63-.62,3.93-1.97.59-.61.86-1.15,1.56-1.28.53-.1,1.21.06,1.53.52.47.69-.1,1.76-.32,2.18-1.26,2.37-4.72,2.86-5.77,2.98"/>
        <path class="cls-11" d="M59.67,153.98c-.92.69-3.09,2.52-3.97,5.63-1.05,3.7-.05,8.45,3.25,10.72,1.59,1.09,4.58,2.2,6.9.9.74-.41,1.23-.97,1.53-1.39"/>
        <path class="cls-11" d="M66.53,162.7c-.17.61-1.12,4.27,1.09,7.39.47.67,2.4,3.39,5.14,3.04,2.15-.27,4.03-2.34,4.43-5.11"/>
        <path class="cls-11" d="M73.31,161.37c.54,1.78,1.3,3.08,1.87,3.91.82,1.18,1.35,1.96,2.42,2.44,1.21.55,2.73.55,3.98-.1,1.81-.93,2.3-2.84,2.62-4.04.26-1.01.98-3.78-.7-6.09-1.47-2.03-4.24-2.94-7-2.35"/>
        <path class="cls-11" d="M77.87,151.16c-.32.37-1.3,1.58-1.32,3.35-.03,2.96,2.65,4.61,2.77,4.68"/>
        <path class="cls-11" d="M71.79,148.41c.88-.61,2.82-1.75,5.37-1.64,1.13.05,2.95.13,4.04,1.54.95,1.23.77,2.72.72,3.08-.35,2.23-2.35,3.26-2.56,3.36"/>
      </g>
    </g>
  </g>
</svg>