<?xml version="1.0" encoding="UTF-8"?>
<svg xmlns="http://www.w3.org/2000/svg" version="1.1" viewBox="0 0 1200 200">
  <defs>
    <style>
      .cls-1, .cls-2, .cls-3 {
        isolation: isolate;
      }

      .cls-2 {
        font-size: 97.6px;
      }

      .cls-2, .cls-3 {
        font-family: BorcerRegular, Borcer;
      }

      .cls-2, .cls-3, .cls-4 {
        fill: #1d1d1b;
      }

      .cls-5 {
        fill: #ef890d;
      }

      .cls-5, .cls-6, .cls-4, .cls-7, .cls-8, .cls-9, .cls-10, .cls-11, .cls-12 {
        stroke-width: 0px;
      }

      .cls-3 {
        font-size: 98.1px;
      }

      .cls-6 {
        fill: #f0a047;
      }

      .cls-7 {
        fill: #fde4cd;
      }

      .cls-8 {
        fill: #fbbf09;
      }

      .cls-9 {
        fill: #3a1812;
      }

      .cls-10 {
        fill: #504f4a;
      }

      .cls-11 {
        fill: #fff;
      }

      .cls-12 {
        fill: #fcc10a;
      }
    </style>
  </defs>
  <g id="Camada_1" data-name="Camada 1">
    <g id="Camada_1-2" data-name="Camada 1-2">
      <rect class="cls-5" width="1200" height="200"/>
    </g>
    <g id="Camada_3" data-name="Camada 3">
      <path class="cls-10" d="M1200,200h-671.9c34-31.6,64.7-42.5,86.6-46.6,52.6-9.8,75.9,15.8,121-1,39.3-14.6,33.3-38.5,71.5-50.4,49.6-15.5,73.2,20.7,111.2,1.1,25.5-13.2,22.3-33.2,60.2-57.8,8.1-5.2,21.5-12.9,47.8-21.3C1090.6,3.6,1164,.5,1200,0v200Z"/>
    </g>
    <g id="Camada_2" data-name="Camada 2">
      <path class="cls-4" d="M1200,200h-665.5c33.6-28,64-37.6,85.8-41.3,52.1-8.7,75.1,14,119.8-.9,39-12.9,33-34.1,70.8-44.6,49.2-13.7,72.5,18.3,110.2.9,25.3-11.7,22.1-29.4,59.6-51.2,8-4.6,21.2-11.4,47.4-18.9,63.6-18.1,136.3-20.8,172-21.2v177.1h0Z"/>
    </g>
    <g id="Camada_4" data-name="Camada 4">
      <g class="cls-1">
        <g class="cls-1">
          <text class="cls-3" transform="translate(36.5 94) scale(1.1 1)"><tspan x="0" y="0">Burguer</tspan></text>
        </g>
      </g>
      <g class="cls-1">
        <g class="cls-1">
          <text class="cls-2" transform="translate(203.1 176.5) scale(.8 1)"><tspan x="0" y="0">BRutu’s</tspan></text>
        </g>
      </g>
      <path class="cls-12" d="M557.1,39.5c-25.8-1.3-40.2,14.1-42.8,10.7-4-5.2,28.2-42.8,48.4-37.5,5.5,1.4,8.8,5.3,8.8,5.3,4.8,5.7,5.3,15,1.2,19.3-3.5,3.6-9.4,2.4-15.5,2.1h-.1Z"/>
      <path class="cls-12" d="M528.7,81.3c-18.1,1.6-28.9,17-30.6,14.2-2.6-4.3,21.8-41.8,35.8-39.1,3.8.7,5.9,3.9,5.9,3.9,3.1,4.6,3,13,0,17.3-2.7,3.7-6.7,3.2-11,3.6h0Z"/>
      <path class="cls-12" d="M574.3,63.6c-12.4-7.8-27.9-3.1-27.4-5.8.8-4.1,37.3-16.5,44.6-7.8,2,2.3,1.5,5.5,1.5,5.5-.6,4.5-5.4,10-9.8,11.2-3.7,1.1-6.1-1.2-9-3.1h.1Z"/>
      <path class="cls-11" d="M1200,84.8v114.5l-7.6,1.2h-202.9c.8-.8,1.7-1.5,2.7-2.2,8.1-6.1,18.2-7.9,28.6-6-.2-19.3,7-37.1,20.9-47.7,13.6-10.3,30.8-11.6,47.1-5.4,3.5-10.3,9.3-19.5,17.4-26.6,19.1-16.7,45.8-17.4,68.9-4.5,2.3-6.3,5.8-11.7,10.7-15.9,4.2-3.7,9-6.1,14.3-7.4h0Z"/>
    </g>
  </g>
  <g id="Camada_2-2" data-name="Camada 2">
    <g>
      <rect class="cls-6" x="47.2" y="155.4" width="138.6" height="22.1" rx="9.5" ry="9.5"/>
      <path class="cls-9" d="M51.2,141.2h133c4.6,0,8.3,3.7,8.3,8.3h0c0,4.6-3.7,8.3-8.3,8.3H51.2c-4.6,0-8.3-3.7-8.3-8.3h0c0-4.6,3.7-8.3,8.3-8.3Z"/>
      <path class="cls-8" d="M181.6,133.1c0,0,0-.9-.1-.9,0,0,4.4,12,.7,15.3-4,3.6-13.2-6.9-23.5-3.1-5.2,1.9-6.8,6.1-10.6,5.3-4.3-.9-4.2-6.9-8.4-7.9-4.8-1.2-6.8,6-13.9,7.2-8.4,1.4-11.7-7.6-20.4-6-5.9,1.1-7.6,5.9-12,4.8-4.6-1.2-5.3-6.6-8.7-6.5-3.9,0-4.8,7.5-9.3,8-3.6.4-4.8-4.3-8.6-4.1-4.7.2-5.6,7.1-10.8,7.7-3,.3-6.3-1.5-7.4-3.8-2.3-4.6,3.4-13.3,14.4-21.4-1,4.6-1.2,7-.7,7.2.3,0,.7-.4,1.3-1.5h105.8c1.7-1.5,7.5-6.6,10.5-4.9,1.6.9,1.7,4.7,1.8,4.7Z"/>
      <path class="cls-6" d="M60.6,138.3c-12.7,0-18.3-13.5-8.2-20,14.1-9.1,37.5-15.1,64.1-15.1s50,6,64.1,15.1c10.1,6.5,4.5,20-8.2,20H60.6Z"/>
      <path class="cls-7" d="M107.6,120.7c.9-2.4,2.8-6.8,6.9-10.9,3.9-3.8,8-5.6,10.4-6.5-1.3-.4-3.9-1.1-6.8-.3-3.7,1-5.6,3.8-7,5.8-3.1,4.5-3.5,9.3-3.5,11.8"/>
    </g>
  </g>
</svg>