<?xml version="1.0" encoding="UTF-8"?>
<svg xmlns="http://www.w3.org/2000/svg" version="1.1" viewBox="0 0 1200 200">
  <defs>
    <style>
      .cls-1 {
        fill: #ef890d;
      }

      .cls-1, .cls-2, .cls-3 {
        stroke-width: 0px;
      }

      .cls-2 {
        fill: #1d1d1b;
      }

      .cls-3 {
        fill: #504f4a;
      }
    </style>
  </defs>
  <g id="Camada_1" data-name="Camada 1">
    <rect class="cls-1" width="1200" height="200"/>
  </g>
  <g id="Camada_3" data-name="Camada 3">
    <path class="cls-3" d="M1200,200h-671.93c33.97-31.58,64.66-42.52,86.61-46.62,52.62-9.82,75.86,15.8,120.97-.97,39.35-14.63,33.33-38.46,71.51-50.36,49.64-15.47,73.18,20.65,111.21,1.07,25.55-13.15,22.28-33.25,60.18-57.83,8.06-5.23,21.45-12.91,47.82-21.3C1090.55,3.58,1163.99.46,1200,0v200Z"/>
  </g>
  <g id="Camada_2" data-name="Camada 2">
    <path class="cls-2" d="M1200,200h-665.51c33.64-27.96,64.04-37.65,85.79-41.27,52.11-8.69,75.13,13.99,119.81-.86,38.97-12.95,33.01-34.05,70.82-44.59,49.17-13.7,72.48,18.28,110.15.95,25.3-11.65,22.07-29.44,59.6-51.2,7.98-4.63,21.24-11.43,47.37-18.86,63.57-18.08,136.3-20.83,171.97-21.25v177.07Z"/>
  </g>
</svg>