<?xml version="1.0" encoding="UTF-8"?>
<svg id="Camada_1" data-name="Camada 1" xmlns="http://www.w3.org/2000/svg" version="1.1" viewBox="0 0 32 32">
  <defs>
    <style>
      .cls-1 {
        fill: #fee5ce;
      }

      .cls-1, .cls-2, .cls-3, .cls-4 {
        stroke-width: 0px;
      }

      .cls-2 {
        fill: #3a1913;
      }

      .cls-3 {
        fill: #f1a148;
      }

      .cls-4 {
        fill: #fcc10d;
      }
    </style>
  </defs>
  <rect class="cls-3" x="1.2" y="21.5" width="29.1" height="4.6" rx="2" ry="2"/>
  <path class="cls-2" d="M2,18.5h27.9c1,0,1.7.8,1.7,1.7h0c0,1-.8,1.7-1.7,1.7H2c-1,0-1.7-.8-1.7-1.7H.3c0-1,.8-1.7,1.7-1.7Z"/>
  <path class="cls-4" d="M29.4,16.8s0-.2,0-.2c0,0,.9,2.5.2,3.2-.8.8-2.8-1.4-4.9-.7-1.1.4-1.4,1.3-2.2,1.1-.9-.2-.9-1.4-1.8-1.7-1-.3-1.4,1.3-2.9,1.5-1.8.3-2.5-1.6-4.3-1.3-1.2.2-1.6,1.2-2.5,1-1-.2-1.1-1.4-1.8-1.4-.8,0-1,1.6-2,1.7-.8,0-1-.9-1.8-.9-1,0-1.2,1.5-2.3,1.6-.6,0-1.3-.3-1.6-.8-.5-1,.7-2.8,3-4.5-.2,1-.3,1.5-.2,1.5,0,0,.1,0,.3-.3h22.2c.3-.3,1.6-1.4,2.2-1,.3.2.4,1,.4,1Z"/>
  <path class="cls-3" d="M4,17.9c-2.7,0-3.8-2.8-1.7-4.2,3-1.9,7.9-3.2,13.5-3.2s10.5,1.3,13.5,3.2c2.1,1.4.9,4.2-1.7,4.2H4Z"/>
  <path class="cls-1" d="M13.9,14.2c.2-.5.6-1.4,1.4-2.3.8-.8,1.7-1.2,2.2-1.4-.3,0-.8-.2-1.4,0-.8.2-1.2.8-1.5,1.2-.7.9-.7,2-.7,2.5"/>
</svg>